<?xml version="1.0" encoding="UTF-8"?>
<svg version="1.1" xmlns="http://www.w3.org/2000/svg" viewBox="0 0 300 300">
<path d="M0,0 L30,0 L30,6 L36,6 L36,24 L42,24 L42,48 L48,48 L48,78 L54,78 L54,72 L60,72 L60,66 L126,66 L126,72 L138,72 L138,18 L144,18 L144,12 L150,12 L150,6 L180,6 L180,12 L186,12 L186,18 L192,18 L192,24 L198,24 L198,36 L204,36 L204,192 L198,192 L198,210 L204,210 L204,204 L216,204 L216,186 L222,186 L222,180 L228,180 L228,168 L234,168 L234,180 L240,180 L240,204 L234,204 L234,228 L228,228 L228,234 L222,234 L222,270 L216,270 L216,288 L210,288 L210,264 L216,264 L216,216 L210,216 L210,222 L192,222 L192,246 L186,246 L186,282 L180,282 L180,288 L18,288 L18,270 L12,270 L12,252 L0,252 L0,258 L-6,258 L-6,264 L-12,264 L-12,270 L-18,270 L-18,276 L-24,276 L-24,282 L-36,282 L-36,270 L-30,270 L-30,258 L-24,258 L-24,252 L-18,252 L-18,246 L-12,246 L-12,240 L0,240 L0,234 L12,234 L12,222 L6,222 L6,210 L0,210 L0,114 L-6,114 L-6,96 L-12,96 L-12,66 L-18,66 L-18,24 L-12,24 L-12,12 L-6,12 L-6,6 L0,6 Z " fill="#802035" transform="translate(42,6)"/>
<path d="M0,0 L18,0 L18,6 L12,6 L12,12 L24,12 L24,18 L18,18 L18,30 L30,30 L30,36 L24,36 L24,84 L18,84 L18,90 L6,90 L6,102 L-12,102 L-12,108 L-18,108 L-18,102 L-24,102 L-24,96 L-30,96 L-30,90 L-36,90 L-36,96 L-42,96 L-42,84 L-36,84 L-36,78 L-30,78 L-30,66 L-36,66 L-36,72 L-42,72 L-42,60 L-36,60 L-36,54 L-30,54 L-30,36 L-36,36 L-36,42 L-42,42 L-42,30 L-36,30 L-36,24 L-30,24 L-30,18 L-24,18 L-24,12 L-12,12 L-12,6 L0,6 Z " fill="#42080C" transform="translate(198,96)"/>
<path d="M0,0 L18,0 L18,6 L30,6 L30,12 L42,12 L42,60 L36,60 L36,66 L30,66 L30,72 L12,72 L12,66 L6,66 L6,60 L0,60 Z " fill="#FFFFFF" transform="translate(84,120)"/>
<path d="M0,0 L6,0 L6,12 L12,12 L12,36 L6,36 L6,60 L0,60 L0,66 L-6,66 L-6,102 L-12,102 L-12,120 L-18,120 L-18,96 L-12,96 L-12,48 L-18,48 L-18,54 L-36,54 L-36,42 L-24,42 L-24,36 L-12,36 L-12,18 L-6,18 L-6,12 L0,12 Z " fill="#7A0C12" transform="translate(270,174)"/>
<path d="M0,0 L12,0 L12,18 L0,18 L0,24 L-6,24 L-6,30 L-12,30 L-12,36 L-18,36 L-18,42 L-24,42 L-24,48 L-36,48 L-36,36 L-30,36 L-30,24 L-24,24 L-24,18 L-18,18 L-18,12 L-12,12 L-12,6 L0,6 Z " fill="#7A0C12" transform="translate(42,240)"/>
<path d="M0,0 L12,0 L12,6 L6,6 L6,42 L0,42 L0,60 L-6,60 L-6,36 L0,36 Z " fill="#000000" transform="translate(258,234)"/>
<path d="M0,0 L6,0 L6,12 L24,12 L24,18 L12,18 L12,36 L6,36 L6,24 L-12,24 L-12,18 L0,18 Z " fill="#FFFFFF" transform="translate(186,138)"/>
<path d="M0,0 L12,0 L12,6 L0,6 Z " fill="#000000" transform="translate(138,186)"/>
<path d="M0,0 L6,0 L6,12 L0,12 Z " fill="#000000" transform="translate(270,174)"/>
</svg>
