<?xml version="1.0" encoding="UTF-8"?>
<svg version="1.1" xmlns="http://www.w3.org/2000/svg" viewBox="0 0 300 300">
<path d="M0,0 L30,0 L30,6 L42,6 L42,12 L48,12 L48,18 L54,18 L54,24 L60,24 L60,54 L66,54 L66,90 L72,90 L72,120 L78,120 L78,156 L84,156 L84,180 L78,180 L78,246 L72,246 L72,282 L66,282 L66,288 L-96,288 L-96,270 L-102,270 L-102,240 L-108,240 L-108,228 L-114,228 L-114,204 L-120,204 L-120,174 L-126,174 L-126,138 L-138,138 L-138,120 L-144,120 L-144,108 L-150,108 L-150,90 L-156,90 L-156,72 L-162,72 L-162,48 L-156,48 L-156,30 L-150,30 L-150,24 L-138,24 L-138,18 L-120,18 L-120,24 L-114,24 L-114,36 L-108,36 L-108,42 L-102,42 L-102,66 L-90,66 L-90,90 L-84,90 L-84,84 L-78,84 L-78,78 L-60,78 L-60,72 L-30,72 L-30,66 L-12,66 L-12,72 L0,72 L0,60 L-6,60 L-6,24 L-12,24 L-12,18 L-6,18 L-6,12 L0,12 Z " fill="#FFEB3B" transform="translate(180,6)"/>
<path d="M0,0 L48,0 L48,6 L54,6 L54,18 L48,18 L48,12 L42,12 L42,6 L36,6 L36,12 L30,12 L30,6 L12,6 L12,12 L0,12 Z " fill="#000000" transform="translate(90,138)"/>
<path d="M0,0 L12,0 L12,12 L0,12 L0,18 L-6,18 L-6,24 L-12,24 L-12,12 L-6,12 L-6,6 L0,6 Z " fill="#000000" transform="translate(180,126)"/>
<path d="M0,0 L18,0 L18,6 L30,6 L30,12 L12,12 L12,6 L0,6 Z " fill="#000000" transform="translate(192,120)"/>
<path d="M0,0 L6,0 L6,12 L0,12 L0,18 L-6,18 L-6,6 L0,6 Z " fill="#000000" transform="translate(84,150)"/>
<path d="M0,0 L12,0 L12,6 L0,6 Z " fill="#000000" transform="translate(222,132)"/>
<path d="M0,0 L6,0 L6,6 L0,6 Z " fill="#000000" transform="translate(156,168)"/>
</svg>
