<?xml version="1.0" encoding="UTF-8"?>
<svg version="1.1" xmlns="http://www.w3.org/2000/svg" viewBox="0 0 300 300">
<path d="M0,0 L6,0 L6,12 L18,12 L18,48 L6,48 L6,84 L12,84 L12,90 L18,90 L18,102 L24,102 L24,90 L30,90 L30,84 L36,84 L36,78 L42,78 L42,72 L48,72 L48,66 L54,66 L54,60 L72,60 L72,54 L84,54 L84,48 L156,48 L156,54 L180,54 L180,60 L192,60 L192,66 L198,66 L198,78 L204,78 L204,84 L210,84 L210,90 L216,90 L216,102 L222,102 L222,90 L228,90 L228,84 L234,84 L234,48 L222,48 L222,12 L234,12 L234,0 L240,0 L240,12 L252,12 L252,48 L240,48 L240,84 L246,84 L246,90 L252,90 L252,186 L246,186 L246,192 L216,192 L216,204 L210,204 L210,210 L204,210 L204,216 L198,216 L198,222 L192,222 L192,270 L186,270 L186,288 L174,288 L174,258 L168,258 L168,240 L156,240 L156,288 L84,288 L84,240 L66,240 L66,246 L60,246 L60,252 L54,252 L54,258 L48,258 L48,288 L36,288 L36,258 L42,258 L42,240 L48,240 L48,222 L42,222 L42,216 L36,216 L36,210 L30,210 L30,204 L24,204 L24,192 L-6,192 L-6,186 L-12,186 L-12,90 L-6,90 L-6,84 L0,84 L0,48 L-12,48 L-12,12 L0,12 Z M54,228 L54,240 L60,240 L60,234 L66,234 L66,228 Z M174,228 L174,252 L180,252 L180,264 L186,264 L186,228 Z " fill="#347C96" transform="translate(30,6)"/>
<path d="M0,0 L6,0 L6,12 L18,12 L18,48 L6,48 L6,84 L12,84 L12,90 L18,90 L18,186 L12,186 L12,192 L-18,192 L-18,186 L-12,186 L-12,108 L-18,108 L-18,102 L-12,102 L-12,90 L-6,90 L-6,84 L0,84 L0,48 L-12,48 L-12,12 L0,12 Z " fill="#545454" transform="translate(264,6)"/>
<path d="M0,0 L6,0 L6,12 L18,12 L18,48 L6,48 L6,84 L12,84 L12,90 L18,90 L18,102 L24,102 L24,108 L18,108 L18,186 L24,186 L24,192 L-6,192 L-6,186 L-12,186 L-12,90 L-6,90 L-6,84 L0,84 L0,48 L-12,48 L-12,12 L0,12 Z " fill="#545454" transform="translate(30,6)"/>
<path d="M0,0 L36,0 L36,6 L42,6 L42,42 L36,42 L36,48 L0,48 L0,42 L-6,42 L-6,6 L0,6 Z " fill="#DE2424" transform="translate(132,66)"/>
<path d="M0,0 L24,0 L24,6 L30,6 L30,42 L24,42 L24,48 L0,48 L0,42 L-6,42 L-6,6 L0,6 Z " fill="#000000" transform="translate(186,120)"/>
<path d="M0,0 L24,0 L24,6 L30,6 L30,42 L24,42 L24,48 L0,48 L0,42 L-6,42 L-6,6 L0,6 Z " fill="#000000" transform="translate(90,120)"/>
<path d="M0,0 L6,0 L6,18 L12,18 L12,12 L18,12 L18,6 L24,6 L24,18 L18,18 L18,24 L12,24 L12,30 L6,30 L6,36 L0,36 L0,66 L-12,66 L-12,36 L-6,36 L-6,18 L0,18 Z " fill="#6D3096" transform="translate(78,228)"/>
<path d="M0,0 L6,0 L6,48 L0,48 L0,66 L-6,66 L-6,42 L0,42 Z " fill="#0905F7" transform="translate(216,228)"/>
<path d="M0,0 L6,0 L6,24 L12,24 L12,60 L6,60 L6,30 L0,30 Z " fill="#DE2424" transform="translate(198,234)"/>
<path d="M0,0 L6,0 L6,12 L0,12 L0,18 L-6,18 L-6,24 L-12,24 L-12,30 L-18,30 L-18,18 L-12,18 L-12,12 L-6,12 L-6,6 L0,6 Z " fill="#F700B9" transform="translate(96,234)"/>
<path d="M0,0 L6,0 L6,30 L0,30 Z " fill="#F700B9" transform="translate(66,264)"/>
</svg>
