<?xml version="1.0" encoding="UTF-8"?>
<svg version="1.1" xmlns="http://www.w3.org/2000/svg" viewBox="0 0 300 300">
<path d="M0,0 L6,0 L6,12 L18,12 L18,48 L6,48 L6,84 L12,84 L12,90 L18,90 L18,102 L24,102 L24,90 L30,90 L30,84 L36,84 L36,78 L42,78 L42,72 L48,72 L48,66 L54,66 L54,60 L72,60 L72,54 L84,54 L84,48 L156,48 L156,54 L180,54 L180,60 L192,60 L192,66 L198,66 L198,78 L204,78 L204,84 L210,84 L210,90 L216,90 L216,102 L222,102 L222,90 L228,90 L228,84 L234,84 L234,48 L222,48 L222,12 L234,12 L234,0 L240,0 L240,12 L252,12 L252,48 L240,48 L240,84 L246,84 L246,90 L252,90 L252,186 L246,186 L246,192 L216,192 L216,282 L210,282 L210,288 L204,288 L204,276 L198,276 L198,288 L192,288 L192,270 L186,270 L186,288 L174,288 L174,258 L168,258 L168,240 L156,240 L156,288 L84,288 L84,252 L78,252 L78,270 L72,270 L72,288 L66,288 L66,264 L72,264 L72,246 L78,246 L78,240 L66,240 L66,246 L60,246 L60,252 L54,252 L54,258 L48,258 L48,288 L36,288 L36,258 L42,258 L42,246 L36,246 L36,252 L30,252 L30,258 L24,258 L24,288 L18,288 L18,264 L12,264 L12,270 L6,270 L6,288 L0,288 L0,264 L6,264 L6,258 L12,258 L12,252 L18,252 L18,246 L24,246 L24,234 L30,234 L30,222 L36,222 L36,210 L30,210 L30,204 L24,204 L24,192 L-6,192 L-6,186 L-12,186 L-12,90 L-6,90 L-6,84 L0,84 L0,48 L-12,48 L-12,12 L0,12 Z M204,210 L204,276 L210,276 L210,210 Z M192,222 L192,270 L198,270 L198,222 Z M54,228 L54,240 L60,240 L60,234 L66,234 L66,228 Z M174,228 L174,252 L180,252 L180,228 Z M42,234 L42,240 L48,240 L48,234 Z " fill="#FF80AB" transform="translate(30,6)"/>
<path d="M0,0 L6,0 L6,12 L18,12 L18,48 L6,48 L6,84 L12,84 L12,90 L18,90 L18,186 L12,186 L12,192 L-18,192 L-18,186 L-12,186 L-12,108 L-18,108 L-18,102 L-12,102 L-12,90 L-6,90 L-6,84 L0,84 L0,48 L-12,48 L-12,12 L0,12 Z " fill="#B0BEC5" transform="translate(264,6)"/>
<path d="M0,0 L6,0 L6,12 L18,12 L18,48 L6,48 L6,84 L12,84 L12,90 L18,90 L18,102 L24,102 L24,108 L18,108 L18,186 L24,186 L24,192 L-6,192 L-6,186 L-12,186 L-12,90 L-6,90 L-6,84 L0,84 L0,48 L-12,48 L-12,12 L0,12 Z " fill="#B0BEC5" transform="translate(30,6)"/>
<path d="M0,0 L24,0 L24,6 L30,6 L30,42 L24,42 L24,48 L0,48 L0,42 L-6,42 L-6,6 L0,6 Z " fill="#FFFFFF" transform="translate(186,120)"/>
<path d="M0,0 L24,0 L24,6 L30,6 L30,42 L24,42 L24,48 L0,48 L0,42 L-6,42 L-6,6 L0,6 Z " fill="#FFFFFF" transform="translate(90,120)"/>
<path d="M0,0 L6,0 L6,12 L0,12 L0,24 L-6,24 L-6,42 L-12,42 L-12,72 L-18,72 L-18,48 L-24,48 L-24,54 L-30,54 L-30,72 L-36,72 L-36,48 L-30,48 L-30,42 L-24,42 L-24,36 L-18,36 L-18,30 L-12,30 L-12,18 L-6,18 L-6,6 L0,6 Z " fill="#0905F7" transform="translate(66,222)"/>
<path d="M0,0 L6,0 L6,24 L12,24 L12,0 L18,0 L18,36 L12,36 L12,60 L6,60 L6,30 L0,30 Z " fill="#FF0000" transform="translate(198,234)"/>
<path d="M0,0 L6,0 L6,24 L0,24 L0,66 L-12,66 L-12,36 L-6,36 L-6,18 L0,18 Z " fill="#0905F7" transform="translate(78,228)"/>
<path d="M0,0 L6,0 L6,78 L0,78 L0,84 L-6,84 L-6,72 L0,72 Z " fill="#FF0000" transform="translate(240,210)"/>
<path d="M0,0 L6,0 L6,60 L0,60 L0,72 L-6,72 L-6,54 L0,54 Z " fill="#FF0000" transform="translate(228,222)"/>
<path d="M0,0 L6,0 L6,48 L0,48 L0,66 L-6,66 L-6,42 L0,42 Z " fill="#0905F7" transform="translate(216,228)"/>
<path d="M0,0 L6,0 L6,12 L0,12 L0,30 L-6,30 L-6,48 L-12,48 L-12,24 L-6,24 L-6,6 L0,6 Z " fill="#FF0000" transform="translate(108,246)"/>
<path d="M0,0 L6,0 L6,12 L0,12 L0,18 L-6,18 L-6,36 L-12,36 L-12,12 L-6,12 L-6,6 L0,6 Z " fill="#FF0000" transform="translate(42,258)"/>
<path d="M0,0 L6,0 L6,12 L0,12 L0,18 L-6,18 L-6,24 L-12,24 L-12,30 L-18,30 L-18,18 L-12,18 L-12,12 L-6,12 L-6,6 L0,6 Z " fill="#FF0000" transform="translate(96,234)"/>
<path d="M0,0 L6,0 L6,12 L0,12 L0,24 L-6,24 L-6,30 L-12,30 L-12,18 L-6,18 L-6,6 L0,6 Z " fill="#FF0000" transform="translate(72,228)"/>
<path d="M0,0 L6,0 L6,30 L0,30 Z " fill="#FF0000" transform="translate(66,264)"/>
<path d="M0,0 L6,0 L6,6 L0,6 Z " fill="#FF0000" transform="translate(48,252)"/>
</svg>
