<?xml version="1.0" encoding="UTF-8"?>
<svg version="1.1" xmlns="http://www.w3.org/2000/svg" viewBox="0 0 300 300">
<path d="M0,0 L72,0 L72,6 L84,6 L84,18 L90,18 L90,24 L96,24 L96,30 L102,30 L102,42 L108,42 L108,66 L96,66 L96,72 L90,72 L90,90 L84,90 L84,84 L78,84 L78,78 L66,78 L66,84 L60,84 L60,102 L54,102 L54,96 L48,96 L48,90 L42,90 L42,96 L36,96 L36,108 L30,108 L30,102 L12,102 L12,120 L6,120 L6,114 L0,114 L0,108 L-6,108 L-6,114 L-12,114 L-12,132 L-18,132 L-18,126 L-24,126 L-24,120 L-36,120 L-36,132 L-42,132 L-42,138 L-48,138 L-48,132 L-60,132 L-60,144 L-66,144 L-66,162 L-60,162 L-60,168 L-48,168 L-48,162 L-42,162 L-42,180 L-36,180 L-36,174 L-30,174 L-30,168 L-24,168 L-24,186 L-12,186 L-12,180 L-6,180 L-6,174 L0,174 L0,192 L18,192 L18,186 L24,186 L24,180 L30,180 L30,198 L42,198 L42,192 L48,192 L48,186 L54,186 L54,204 L72,204 L72,198 L78,198 L78,192 L84,192 L84,210 L90,210 L90,228 L84,228 L84,234 L42,234 L42,228 L6,228 L6,222 L-18,222 L-18,216 L-42,216 L-42,210 L-66,210 L-66,204 L-90,204 L-90,198 L-96,198 L-96,192 L-132,192 L-132,198 L-138,198 L-138,204 L-144,204 L-144,210 L-162,210 L-162,204 L-156,204 L-156,198 L-150,198 L-150,192 L-144,192 L-144,186 L-156,186 L-156,192 L-162,192 L-162,198 L-174,198 L-174,192 L-168,192 L-168,180 L-174,180 L-174,174 L-180,174 L-180,84 L-174,84 L-174,78 L-168,78 L-168,72 L-174,72 L-174,60 L-168,60 L-168,66 L-150,66 L-150,72 L-138,72 L-138,66 L-144,66 L-144,60 L-162,60 L-162,54 L-174,54 L-174,48 L-168,48 L-168,42 L-138,42 L-138,48 L-120,48 L-120,54 L-108,54 L-108,48 L-96,48 L-96,42 L-84,42 L-84,36 L-72,36 L-72,30 L-54,30 L-54,24 L-42,24 L-42,18 L-30,18 L-30,12 L-12,12 L-12,6 L0,6 Z " fill="#E91E63" transform="translate(186,24)"/>
<path d="M0,0 L24,0 L24,102 L0,102 L0,96 L-6,96 L-6,6 L0,6 Z " fill="#000000" transform="translate(12,102)"/>
<path d="M0,0 L30,0 L30,12 L24,12 L24,18 L18,18 L18,24 L0,24 L0,30 L-18,30 L-18,12 L-12,12 L-12,6 L0,6 Z " fill="#000000" transform="translate(234,66)"/>
<path d="M0,0 L6,0 L6,12 L0,12 L0,18 L-6,18 L-6,12 L-12,12 L-12,6 L0,6 Z " fill="#000000" transform="translate(144,144)"/>
<path d="M0,0 L12,0 L12,18 L6,18 L6,12 L0,12 Z " fill="#000000" transform="translate(162,138)"/>
<path d="M0,0 L12,0 L12,18 L6,18 L6,12 L0,12 Z " fill="#000000" transform="translate(186,126)"/>
<path d="M0,0 L6,0 L6,18 L0,18 L0,12 L-6,12 L-6,6 L0,6 Z " fill="#000000" transform="translate(264,216)"/>
<path d="M0,0 L6,0 L6,18 L0,18 L0,12 L-6,12 L-6,6 L0,6 Z " fill="#000000" transform="translate(234,210)"/>
<path d="M0,0 L6,0 L6,18 L0,18 L0,12 L-6,12 L-6,6 L0,6 Z " fill="#000000" transform="translate(210,204)"/>
<path d="M0,0 L6,0 L6,18 L0,18 L0,12 L-6,12 L-6,6 L0,6 Z " fill="#000000" transform="translate(180,198)"/>
<path d="M0,0 L6,0 L6,18 L0,18 L0,12 L-6,12 L-6,6 L0,6 Z " fill="#000000" transform="translate(156,192)"/>
<path d="M0,0 L6,0 L6,18 L0,18 L0,12 L-6,12 L-6,6 L0,6 Z " fill="#000000" transform="translate(138,186)"/>
<path d="M0,0 L6,0 L6,18 L0,18 L0,12 L-6,12 L-6,6 L0,6 Z " fill="#000000" transform="translate(240,108)"/>
<path d="M0,0 L6,0 L6,18 L0,18 L0,12 L-6,12 L-6,6 L0,6 Z " fill="#000000" transform="translate(270,96)"/>
<path d="M0,0 L12,0 L12,12 L6,12 L6,6 L0,6 Z " fill="#000000" transform="translate(210,120)"/>
</svg>
