<?xml version="1.0" encoding="UTF-8"?>
<!DOCTYPE svg PUBLIC "-//W3C//DTD SVG 1.1//EN" "http://www.w3.org/Graphics/SVG/1.1/DTD/svg11.dtd">
<svg xmlns="http://www.w3.org/2000/svg" version="1.1" viewBox="0 0 300 300" xmlns:xlink="http://www.w3.org/1999/xlink">
<g><path style="opacity:1" fill="#81d4fa" d="M 245.5,173.5 C 243.5,173.5 241.5,173.5 239.5,173.5C 239.5,171.5 239.5,169.5 239.5,167.5C 235.5,167.5 231.5,167.5 227.5,167.5C 227.5,169.5 227.5,171.5 227.5,173.5C 229.5,173.5 231.5,173.5 233.5,173.5C 233.5,177.5 233.5,181.5 233.5,185.5C 237.5,185.5 241.5,185.5 245.5,185.5C 245.5,189.5 245.5,193.5 245.5,197.5C 243.5,197.5 241.5,197.5 239.5,197.5C 239.5,195.5 239.5,193.5 239.5,191.5C 235.5,191.5 231.5,191.5 227.5,191.5C 227.5,193.5 227.5,195.5 227.5,197.5C 229.5,197.5 231.5,197.5 233.5,197.5C 233.5,199.5 233.5,201.5 233.5,203.5C 231.5,203.5 229.5,203.5 227.5,203.5C 227.5,209.5 227.5,215.5 227.5,221.5C 229.5,221.5 231.5,221.5 233.5,221.5C 233.5,231.5 233.5,241.5 233.5,251.5C 231.5,251.5 229.5,251.5 227.5,251.5C 227.5,263.5 227.5,275.5 227.5,287.5C 225.5,287.5 223.5,287.5 221.5,287.5C 221.5,289.5 221.5,291.5 221.5,293.5C 167.5,293.5 113.5,293.5 59.5,293.5C 59.5,287.5 59.5,281.5 59.5,275.5C 57.5,275.5 55.5,275.5 53.5,275.5C 53.5,261.5 53.5,247.5 53.5,233.5C 57.5,233.5 61.5,233.5 65.5,233.5C 65.5,231.5 65.5,229.5 65.5,227.5C 69.5,227.5 73.5,227.5 77.5,227.5C 77.5,223.5 77.5,219.5 77.5,215.5C 73.5,215.5 69.5,215.5 65.5,215.5C 65.5,217.5 65.5,219.5 65.5,221.5C 61.5,221.5 57.5,221.5 53.5,221.5C 51.5,221.5 49.5,221.5 47.5,221.5C 47.5,219.5 47.5,217.5 47.5,215.5C 49.5,215.5 51.5,215.5 53.5,215.5C 53.5,213.5 53.5,211.5 53.5,209.5C 61.5,209.5 69.5,209.5 77.5,209.5C 77.5,207.5 77.5,205.5 77.5,203.5C 67.5,203.5 57.5,203.5 47.5,203.5C 45.5,203.5 43.5,203.5 41.5,203.5C 41.5,201.5 41.5,199.5 41.5,197.5C 45.5,197.5 49.5,197.5 53.5,197.5C 53.5,195.5 53.5,193.5 53.5,191.5C 55.5,191.5 57.5,191.5 59.5,191.5C 59.5,189.5 59.5,187.5 59.5,185.5C 65.5,185.5 71.5,185.5 77.5,185.5C 77.5,183.5 77.5,181.5 77.5,179.5C 69.5,179.5 61.5,179.5 53.5,179.5C 49.5,179.5 45.5,179.5 41.5,179.5C 41.5,159.5 41.5,139.5 41.5,119.5C 39.5,119.5 37.5,119.5 35.5,119.5C 35.5,113.5 35.5,107.5 35.5,101.5C 33.5,101.5 31.5,101.5 29.5,101.5C 29.5,91.5 29.5,81.5 29.5,71.5C 27.5,71.5 25.5,71.5 23.5,71.5C 23.5,57.5 23.5,43.5 23.5,29.5C 25.5,29.5 27.5,29.5 29.5,29.5C 29.5,25.5 29.5,21.5 29.5,17.5C 31.5,17.5 33.5,17.5 35.5,17.5C 35.5,15.5 35.5,13.5 35.5,11.5C 37.5,11.5 39.5,11.5 41.5,11.5C 41.5,9.5 41.5,7.5 41.5,5.5C 51.5,5.5 61.5,5.5 71.5,5.5C 71.5,7.5 71.5,9.5 71.5,11.5C 73.5,11.5 75.5,11.5 77.5,11.5C 77.5,17.5 77.5,23.5 77.5,29.5C 79.5,29.5 81.5,29.5 83.5,29.5C 83.5,37.5 83.5,45.5 83.5,53.5C 85.5,53.5 87.5,53.5 89.5,53.5C 89.5,63.5 89.5,73.5 89.5,83.5C 91.5,83.5 93.5,83.5 95.5,83.5C 95.5,81.5 95.5,79.5 95.5,77.5C 97.5,77.5 99.5,77.5 101.5,77.5C 101.5,75.5 101.5,73.5 101.5,71.5C 123.5,71.5 145.5,71.5 167.5,71.5C 167.5,73.5 167.5,75.5 167.5,77.5C 171.5,77.5 175.5,77.5 179.5,77.5C 179.5,59.5 179.5,41.5 179.5,23.5C 181.5,23.5 183.5,23.5 185.5,23.5C 185.5,21.5 185.5,19.5 185.5,17.5C 187.5,17.5 189.5,17.5 191.5,17.5C 191.5,15.5 191.5,13.5 191.5,11.5C 201.5,11.5 211.5,11.5 221.5,11.5C 221.5,13.5 221.5,15.5 221.5,17.5C 223.5,17.5 225.5,17.5 227.5,17.5C 227.5,19.5 227.5,21.5 227.5,23.5C 229.5,23.5 231.5,23.5 233.5,23.5C 233.5,25.5 233.5,27.5 233.5,29.5C 235.5,29.5 237.5,29.5 239.5,29.5C 239.5,33.5 239.5,37.5 239.5,41.5C 241.5,41.5 243.5,41.5 245.5,41.5C 245.5,85.5 245.5,129.5 245.5,173.5 Z"/></g>
<g><path style="opacity:1" fill="#000000" d="M 101.5,107.5 C 107.5,107.5 113.5,107.5 119.5,107.5C 119.5,109.5 119.5,111.5 119.5,113.5C 121.5,113.5 123.5,113.5 125.5,113.5C 125.5,115.5 125.5,117.5 125.5,119.5C 127.5,119.5 129.5,119.5 131.5,119.5C 131.5,139.5 131.5,159.5 131.5,179.5C 129.5,179.5 127.5,179.5 125.5,179.5C 125.5,181.5 125.5,183.5 125.5,185.5C 123.5,185.5 121.5,185.5 119.5,185.5C 119.5,187.5 119.5,189.5 119.5,191.5C 113.5,191.5 107.5,191.5 101.5,191.5C 101.5,189.5 101.5,187.5 101.5,185.5C 99.5,185.5 97.5,185.5 95.5,185.5C 95.5,183.5 95.5,181.5 95.5,179.5C 93.5,179.5 91.5,179.5 89.5,179.5C 89.5,159.5 89.5,139.5 89.5,119.5C 91.5,119.5 93.5,119.5 95.5,119.5C 95.5,117.5 95.5,115.5 95.5,113.5C 97.5,113.5 99.5,113.5 101.5,113.5C 101.5,111.5 101.5,109.5 101.5,107.5 Z"/></g>
<g><path style="opacity:1" fill="#000000" d="M 167.5,107.5 C 173.5,107.5 179.5,107.5 185.5,107.5C 185.5,109.5 185.5,111.5 185.5,113.5C 187.5,113.5 189.5,113.5 191.5,113.5C 191.5,115.5 191.5,117.5 191.5,119.5C 193.5,119.5 195.5,119.5 197.5,119.5C 197.5,139.5 197.5,159.5 197.5,179.5C 195.5,179.5 193.5,179.5 191.5,179.5C 191.5,181.5 191.5,183.5 191.5,185.5C 189.5,185.5 187.5,185.5 185.5,185.5C 185.5,187.5 185.5,189.5 185.5,191.5C 179.5,191.5 173.5,191.5 167.5,191.5C 167.5,189.5 167.5,187.5 167.5,185.5C 165.5,185.5 163.5,185.5 161.5,185.5C 161.5,183.5 161.5,181.5 161.5,179.5C 159.5,179.5 157.5,179.5 155.5,179.5C 155.5,159.5 155.5,139.5 155.5,119.5C 157.5,119.5 159.5,119.5 161.5,119.5C 161.5,117.5 161.5,115.5 161.5,113.5C 163.5,113.5 165.5,113.5 167.5,113.5C 167.5,111.5 167.5,109.5 167.5,107.5 Z"/></g>
<g><path style="opacity:1" fill="#aa47bc" d="M 245.5,173.5 C 249.5,173.5 253.5,173.5 257.5,173.5C 257.5,177.5 257.5,181.5 257.5,185.5C 259.5,185.5 261.5,185.5 263.5,185.5C 263.5,187.5 263.5,189.5 263.5,191.5C 259.5,191.5 255.5,191.5 251.5,191.5C 251.5,189.5 251.5,187.5 251.5,185.5C 249.5,185.5 247.5,185.5 245.5,185.5C 241.5,185.5 237.5,185.5 233.5,185.5C 233.5,181.5 233.5,177.5 233.5,173.5C 231.5,173.5 229.5,173.5 227.5,173.5C 227.5,171.5 227.5,169.5 227.5,167.5C 231.5,167.5 235.5,167.5 239.5,167.5C 239.5,169.5 239.5,171.5 239.5,173.5C 241.5,173.5 243.5,173.5 245.5,173.5 Z"/></g>
<g><path style="opacity:1" fill="#fe4080" d="M 299.5,167.5 C 299.5,179.5 299.5,191.5 299.5,203.5C 297.5,203.5 295.5,203.5 293.5,203.5C 293.5,205.5 293.5,207.5 293.5,209.5C 295.5,209.5 297.5,209.5 299.5,209.5C 299.5,215.5 299.5,221.5 299.5,227.5C 285.5,227.5 271.5,227.5 257.5,227.5C 257.5,225.5 257.5,223.5 257.5,221.5C 255.5,221.5 253.5,221.5 251.5,221.5C 251.5,219.5 251.5,217.5 251.5,215.5C 257.5,215.5 263.5,215.5 269.5,215.5C 269.5,213.5 269.5,211.5 269.5,209.5C 267.5,209.5 265.5,209.5 263.5,209.5C 263.5,207.5 263.5,205.5 263.5,203.5C 261.5,203.5 259.5,203.5 257.5,203.5C 257.5,201.5 257.5,199.5 257.5,197.5C 259.5,197.5 261.5,197.5 263.5,197.5C 263.5,195.5 263.5,193.5 263.5,191.5C 263.5,189.5 263.5,187.5 263.5,185.5C 261.5,185.5 259.5,185.5 257.5,185.5C 257.5,181.5 257.5,177.5 257.5,173.5C 265.5,173.5 273.5,173.5 281.5,173.5C 281.5,171.5 281.5,169.5 281.5,167.5C 287.5,167.5 293.5,167.5 299.5,167.5 Z"/></g>
<g><path style="opacity:1" fill="#fe4080" d="M -0.5,173.5 C 5.5,173.5 11.5,173.5 17.5,173.5C 17.5,175.5 17.5,177.5 17.5,179.5C 25.5,179.5 33.5,179.5 41.5,179.5C 45.5,179.5 49.5,179.5 53.5,179.5C 53.5,181.5 53.5,183.5 53.5,185.5C 51.5,185.5 49.5,185.5 47.5,185.5C 47.5,187.5 47.5,189.5 47.5,191.5C 45.5,191.5 43.5,191.5 41.5,191.5C 41.5,193.5 41.5,195.5 41.5,197.5C 37.5,197.5 33.5,197.5 29.5,197.5C 29.5,199.5 29.5,201.5 29.5,203.5C 33.5,203.5 37.5,203.5 41.5,203.5C 43.5,203.5 45.5,203.5 47.5,203.5C 47.5,205.5 47.5,207.5 47.5,209.5C 43.5,209.5 39.5,209.5 35.5,209.5C 35.5,211.5 35.5,213.5 35.5,215.5C 33.5,215.5 31.5,215.5 29.5,215.5C 29.5,217.5 29.5,219.5 29.5,221.5C 35.5,221.5 41.5,221.5 47.5,221.5C 49.5,221.5 51.5,221.5 53.5,221.5C 53.5,223.5 53.5,225.5 53.5,227.5C 51.5,227.5 49.5,227.5 47.5,227.5C 47.5,229.5 47.5,231.5 47.5,233.5C 35.5,233.5 23.5,233.5 11.5,233.5C 11.5,231.5 11.5,229.5 11.5,227.5C 7.5,227.5 3.5,227.5 -0.5,227.5C -0.5,223.5 -0.5,219.5 -0.5,215.5C 1.5,215.5 3.5,215.5 5.5,215.5C 5.5,213.5 5.5,211.5 5.5,209.5C 3.5,209.5 1.5,209.5 -0.5,209.5C -0.5,205.5 -0.5,201.5 -0.5,197.5C 1.5,197.5 3.5,197.5 5.5,197.5C 5.5,195.5 5.5,193.5 5.5,191.5C 3.5,191.5 1.5,191.5 -0.5,191.5C -0.5,185.5 -0.5,179.5 -0.5,173.5 Z"/></g>
<g><path style="opacity:1" fill="#aa47bc" d="M 53.5,179.5 C 61.5,179.5 69.5,179.5 77.5,179.5C 77.5,181.5 77.5,183.5 77.5,185.5C 71.5,185.5 65.5,185.5 59.5,185.5C 59.5,187.5 59.5,189.5 59.5,191.5C 57.5,191.5 55.5,191.5 53.5,191.5C 53.5,193.5 53.5,195.5 53.5,197.5C 49.5,197.5 45.5,197.5 41.5,197.5C 41.5,195.5 41.5,193.5 41.5,191.5C 43.5,191.5 45.5,191.5 47.5,191.5C 47.5,189.5 47.5,187.5 47.5,185.5C 49.5,185.5 51.5,185.5 53.5,185.5C 53.5,183.5 53.5,181.5 53.5,179.5 Z"/></g>
<g><path style="opacity:1" fill="#000000" d="M 137.5,185.5 C 141.5,185.5 145.5,185.5 149.5,185.5C 149.5,187.5 149.5,189.5 149.5,191.5C 145.5,191.5 141.5,191.5 137.5,191.5C 137.5,189.5 137.5,187.5 137.5,185.5 Z"/></g>
<g><path style="opacity:1" fill="#aa47bc" d="M 245.5,197.5 C 249.5,197.5 253.5,197.5 257.5,197.5C 257.5,199.5 257.5,201.5 257.5,203.5C 259.5,203.5 261.5,203.5 263.5,203.5C 263.5,205.5 263.5,207.5 263.5,209.5C 259.5,209.5 255.5,209.5 251.5,209.5C 251.5,207.5 251.5,205.5 251.5,203.5C 247.5,203.5 243.5,203.5 239.5,203.5C 237.5,203.5 235.5,203.5 233.5,203.5C 233.5,201.5 233.5,199.5 233.5,197.5C 231.5,197.5 229.5,197.5 227.5,197.5C 227.5,195.5 227.5,193.5 227.5,191.5C 231.5,191.5 235.5,191.5 239.5,191.5C 239.5,193.5 239.5,195.5 239.5,197.5C 241.5,197.5 243.5,197.5 245.5,197.5 Z"/></g>
<g><path style="opacity:1" fill="#aa47bc" d="M 47.5,203.5 C 57.5,203.5 67.5,203.5 77.5,203.5C 77.5,205.5 77.5,207.5 77.5,209.5C 69.5,209.5 61.5,209.5 53.5,209.5C 53.5,211.5 53.5,213.5 53.5,215.5C 51.5,215.5 49.5,215.5 47.5,215.5C 43.5,215.5 39.5,215.5 35.5,215.5C 35.5,213.5 35.5,211.5 35.5,209.5C 39.5,209.5 43.5,209.5 47.5,209.5C 47.5,207.5 47.5,205.5 47.5,203.5 Z"/></g>
<g><path style="opacity:1" fill="#aa47bc" d="M 233.5,203.5 C 233.5,205.5 233.5,207.5 233.5,209.5C 235.5,209.5 237.5,209.5 239.5,209.5C 239.5,211.5 239.5,213.5 239.5,215.5C 243.5,215.5 247.5,215.5 251.5,215.5C 251.5,217.5 251.5,219.5 251.5,221.5C 253.5,221.5 255.5,221.5 257.5,221.5C 257.5,223.5 257.5,225.5 257.5,227.5C 251.5,227.5 245.5,227.5 239.5,227.5C 239.5,225.5 239.5,223.5 239.5,221.5C 237.5,221.5 235.5,221.5 233.5,221.5C 231.5,221.5 229.5,221.5 227.5,221.5C 227.5,215.5 227.5,209.5 227.5,203.5C 229.5,203.5 231.5,203.5 233.5,203.5 Z"/></g>
<g><path style="opacity:1" fill="#81d4fa" d="M 233.5,203.5 C 235.5,203.5 237.5,203.5 239.5,203.5C 239.5,205.5 239.5,207.5 239.5,209.5C 237.5,209.5 235.5,209.5 233.5,209.5C 233.5,207.5 233.5,205.5 233.5,203.5 Z"/></g>
<g><path style="opacity:1" fill="#aa47bc" d="M 53.5,233.5 C 51.5,233.5 49.5,233.5 47.5,233.5C 47.5,231.5 47.5,229.5 47.5,227.5C 49.5,227.5 51.5,227.5 53.5,227.5C 53.5,225.5 53.5,223.5 53.5,221.5C 57.5,221.5 61.5,221.5 65.5,221.5C 65.5,219.5 65.5,217.5 65.5,215.5C 69.5,215.5 73.5,215.5 77.5,215.5C 77.5,219.5 77.5,223.5 77.5,227.5C 73.5,227.5 69.5,227.5 65.5,227.5C 65.5,229.5 65.5,231.5 65.5,233.5C 61.5,233.5 57.5,233.5 53.5,233.5 Z"/></g>
</svg>
