<?xml version="1.0" encoding="UTF-8"?>
<!DOCTYPE svg PUBLIC "-//W3C//DTD SVG 1.1//EN" "http://www.w3.org/Graphics/SVG/1.1/DTD/svg11.dtd">
<svg xmlns="http://www.w3.org/2000/svg" version="1.1" viewBox="0 0 300 300" xmlns:xlink="http://www.w3.org/1999/xlink">
<g><path style="opacity:1" fill="#b1ff58" d="M 101.5,53.5 C 103.5,53.5 105.5,53.5 107.5,53.5C 107.5,47.5 107.5,41.5 107.5,35.5C 111.5,35.5 115.5,35.5 119.5,35.5C 119.5,45.5 119.5,55.5 119.5,65.5C 121.5,65.5 123.5,65.5 125.5,65.5C 125.5,63.5 125.5,61.5 125.5,59.5C 127.5,59.5 129.5,59.5 131.5,59.5C 131.5,51.5 131.5,43.5 131.5,35.5C 135.5,35.5 139.5,35.5 143.5,35.5C 143.5,39.5 143.5,43.5 143.5,47.5C 145.5,47.5 147.5,47.5 149.5,47.5C 149.5,51.5 149.5,55.5 149.5,59.5C 151.5,59.5 153.5,59.5 155.5,59.5C 155.5,61.5 155.5,63.5 155.5,65.5C 157.5,65.5 159.5,65.5 161.5,65.5C 161.5,57.5 161.5,49.5 161.5,41.5C 159.5,41.5 157.5,41.5 155.5,41.5C 155.5,37.5 155.5,33.5 155.5,29.5C 159.5,29.5 163.5,29.5 167.5,29.5C 167.5,31.5 167.5,33.5 167.5,35.5C 169.5,35.5 171.5,35.5 173.5,35.5C 173.5,37.5 173.5,39.5 173.5,41.5C 177.5,41.5 181.5,41.5 185.5,41.5C 185.5,39.5 185.5,37.5 185.5,35.5C 187.5,35.5 189.5,35.5 191.5,35.5C 191.5,31.5 191.5,27.5 191.5,23.5C 195.5,23.5 199.5,23.5 203.5,23.5C 203.5,19.5 203.5,15.5 203.5,11.5C 211.5,11.5 219.5,11.5 227.5,11.5C 227.5,13.5 227.5,15.5 227.5,17.5C 229.5,17.5 231.5,17.5 233.5,17.5C 233.5,19.5 233.5,21.5 233.5,23.5C 235.5,23.5 237.5,23.5 239.5,23.5C 239.5,27.5 239.5,31.5 239.5,35.5C 241.5,35.5 243.5,35.5 245.5,35.5C 245.5,41.5 245.5,47.5 245.5,53.5C 247.5,53.5 249.5,53.5 251.5,53.5C 251.5,57.5 251.5,61.5 251.5,65.5C 249.5,65.5 247.5,65.5 245.5,65.5C 245.5,73.5 245.5,81.5 245.5,89.5C 247.5,89.5 249.5,89.5 251.5,89.5C 251.5,93.5 251.5,97.5 251.5,101.5C 249.5,101.5 247.5,101.5 245.5,101.5C 245.5,107.5 245.5,113.5 245.5,119.5C 243.5,119.5 241.5,119.5 239.5,119.5C 239.5,125.5 239.5,131.5 239.5,137.5C 241.5,137.5 243.5,137.5 245.5,137.5C 245.5,135.5 245.5,133.5 245.5,131.5C 247.5,131.5 249.5,131.5 251.5,131.5C 251.5,125.5 251.5,119.5 251.5,113.5C 253.5,113.5 255.5,113.5 257.5,113.5C 257.5,115.5 257.5,117.5 257.5,119.5C 259.5,119.5 261.5,119.5 263.5,119.5C 263.5,117.5 263.5,115.5 263.5,113.5C 265.5,113.5 267.5,113.5 269.5,113.5C 269.5,121.5 269.5,129.5 269.5,137.5C 267.5,137.5 265.5,137.5 263.5,137.5C 263.5,143.5 263.5,149.5 263.5,155.5C 261.5,155.5 259.5,155.5 257.5,155.5C 257.5,157.5 257.5,159.5 257.5,161.5C 255.5,161.5 253.5,161.5 251.5,161.5C 251.5,163.5 251.5,165.5 251.5,167.5C 255.5,167.5 259.5,167.5 263.5,167.5C 263.5,165.5 263.5,163.5 263.5,161.5C 265.5,161.5 267.5,161.5 269.5,161.5C 269.5,167.5 269.5,173.5 269.5,179.5C 265.5,179.5 261.5,179.5 257.5,179.5C 257.5,181.5 257.5,183.5 257.5,185.5C 255.5,185.5 253.5,185.5 251.5,185.5C 251.5,189.5 251.5,193.5 251.5,197.5C 255.5,197.5 259.5,197.5 263.5,197.5C 263.5,199.5 263.5,201.5 263.5,203.5C 265.5,203.5 267.5,203.5 269.5,203.5C 269.5,205.5 269.5,207.5 269.5,209.5C 271.5,209.5 273.5,209.5 275.5,209.5C 275.5,219.5 275.5,229.5 275.5,239.5C 273.5,239.5 271.5,239.5 269.5,239.5C 269.5,237.5 269.5,235.5 269.5,233.5C 265.5,233.5 261.5,233.5 257.5,233.5C 257.5,231.5 257.5,229.5 257.5,227.5C 251.5,227.5 245.5,227.5 239.5,227.5C 239.5,233.5 239.5,239.5 239.5,245.5C 243.5,245.5 247.5,245.5 251.5,245.5C 251.5,255.5 251.5,265.5 251.5,275.5C 249.5,275.5 247.5,275.5 245.5,275.5C 245.5,273.5 245.5,271.5 245.5,269.5C 243.5,269.5 241.5,269.5 239.5,269.5C 239.5,267.5 239.5,265.5 239.5,263.5C 237.5,263.5 235.5,263.5 233.5,263.5C 233.5,267.5 233.5,271.5 233.5,275.5C 235.5,275.5 237.5,275.5 239.5,275.5C 239.5,277.5 239.5,279.5 239.5,281.5C 243.5,281.5 247.5,281.5 251.5,281.5C 251.5,285.5 251.5,289.5 251.5,293.5C 187.5,293.5 123.5,293.5 59.5,293.5C 59.5,291.5 59.5,289.5 59.5,287.5C 57.5,287.5 55.5,287.5 53.5,287.5C 53.5,283.5 53.5,279.5 53.5,275.5C 51.5,275.5 49.5,275.5 47.5,275.5C 47.5,277.5 47.5,279.5 47.5,281.5C 43.5,281.5 39.5,281.5 35.5,281.5C 35.5,275.5 35.5,269.5 35.5,263.5C 37.5,263.5 39.5,263.5 41.5,263.5C 41.5,259.5 41.5,255.5 41.5,251.5C 43.5,251.5 45.5,251.5 47.5,251.5C 47.5,245.5 47.5,239.5 47.5,233.5C 45.5,233.5 43.5,233.5 41.5,233.5C 41.5,235.5 41.5,237.5 41.5,239.5C 35.5,239.5 29.5,239.5 23.5,239.5C 23.5,233.5 23.5,227.5 23.5,221.5C 25.5,221.5 27.5,221.5 29.5,221.5C 29.5,219.5 29.5,217.5 29.5,215.5C 31.5,215.5 33.5,215.5 35.5,215.5C 35.5,213.5 35.5,211.5 35.5,209.5C 33.5,209.5 31.5,209.5 29.5,209.5C 29.5,205.5 29.5,201.5 29.5,197.5C 27.5,197.5 25.5,197.5 23.5,197.5C 23.5,195.5 23.5,193.5 23.5,191.5C 21.5,191.5 19.5,191.5 17.5,191.5C 17.5,187.5 17.5,183.5 17.5,179.5C 23.5,179.5 29.5,179.5 35.5,179.5C 35.5,175.5 35.5,171.5 35.5,167.5C 33.5,167.5 31.5,167.5 29.5,167.5C 29.5,161.5 29.5,155.5 29.5,149.5C 27.5,149.5 25.5,149.5 23.5,149.5C 23.5,145.5 23.5,141.5 23.5,137.5C 21.5,137.5 19.5,137.5 17.5,137.5C 17.5,131.5 17.5,125.5 17.5,119.5C 19.5,119.5 21.5,119.5 23.5,119.5C 23.5,117.5 23.5,115.5 23.5,113.5C 25.5,113.5 27.5,113.5 29.5,113.5C 29.5,117.5 29.5,121.5 29.5,125.5C 31.5,125.5 33.5,125.5 35.5,125.5C 35.5,119.5 35.5,113.5 35.5,107.5C 33.5,107.5 31.5,107.5 29.5,107.5C 29.5,103.5 29.5,99.5 29.5,95.5C 27.5,95.5 25.5,95.5 23.5,95.5C 23.5,89.5 23.5,83.5 23.5,77.5C 21.5,77.5 19.5,77.5 17.5,77.5C 17.5,61.5 17.5,45.5 17.5,29.5C 21.5,29.5 25.5,29.5 29.5,29.5C 29.5,27.5 29.5,25.5 29.5,23.5C 31.5,23.5 33.5,23.5 35.5,23.5C 35.5,21.5 35.5,19.5 35.5,17.5C 49.5,17.5 63.5,17.5 77.5,17.5C 77.5,19.5 77.5,21.5 77.5,23.5C 79.5,23.5 81.5,23.5 83.5,23.5C 83.5,21.5 83.5,19.5 83.5,17.5C 87.5,17.5 91.5,17.5 95.5,17.5C 95.5,25.5 95.5,33.5 95.5,41.5C 97.5,41.5 99.5,41.5 101.5,41.5C 101.5,45.5 101.5,49.5 101.5,53.5 Z M 101.5,53.5 C 101.5,59.5 101.5,65.5 101.5,71.5C 99.5,71.5 97.5,71.5 95.5,71.5C 95.5,65.5 95.5,59.5 95.5,53.5C 97.5,53.5 99.5,53.5 101.5,53.5 Z"/></g>
<g><path style="opacity:1" fill="#7bb341" d="M 155.5,95.5 C 153.5,95.5 151.5,95.5 149.5,95.5C 149.5,97.5 149.5,99.5 149.5,101.5C 145.5,101.5 141.5,101.5 137.5,101.5C 137.5,99.5 137.5,97.5 137.5,95.5C 135.5,95.5 133.5,95.5 131.5,95.5C 131.5,91.5 131.5,87.5 131.5,83.5C 133.5,83.5 135.5,83.5 137.5,83.5C 137.5,81.5 137.5,79.5 137.5,77.5C 141.5,77.5 145.5,77.5 149.5,77.5C 149.5,79.5 149.5,81.5 149.5,83.5C 151.5,83.5 153.5,83.5 155.5,83.5C 155.5,87.5 155.5,91.5 155.5,95.5 Z"/></g>
<g><path style="opacity:1" fill="#7bb341" d="M 131.5,95.5 C 133.5,95.5 135.5,95.5 137.5,95.5C 137.5,97.5 137.5,99.5 137.5,101.5C 137.5,105.5 137.5,109.5 137.5,113.5C 135.5,113.5 133.5,113.5 131.5,113.5C 131.5,115.5 131.5,117.5 131.5,119.5C 127.5,119.5 123.5,119.5 119.5,119.5C 119.5,117.5 119.5,115.5 119.5,113.5C 117.5,113.5 115.5,113.5 113.5,113.5C 113.5,109.5 113.5,105.5 113.5,101.5C 115.5,101.5 117.5,101.5 119.5,101.5C 119.5,99.5 119.5,97.5 119.5,95.5C 123.5,95.5 127.5,95.5 131.5,95.5 Z"/></g>
<g><path style="opacity:1" fill="#b1ff58" d="M 131.5,95.5 C 133.5,95.5 135.5,95.5 137.5,95.5C 137.5,97.5 137.5,99.5 137.5,101.5C 135.5,101.5 133.5,101.5 131.5,101.5C 131.5,99.5 131.5,97.5 131.5,95.5 Z"/></g>
<g><path style="opacity:1" fill="#b1ff58" d="M 155.5,95.5 C 155.5,97.5 155.5,99.5 155.5,101.5C 153.5,101.5 151.5,101.5 149.5,101.5C 149.5,99.5 149.5,97.5 149.5,95.5C 151.5,95.5 153.5,95.5 155.5,95.5 Z"/></g>
<g><path style="opacity:1" fill="#7bb341" d="M 155.5,95.5 C 159.5,95.5 163.5,95.5 167.5,95.5C 167.5,97.5 167.5,99.5 167.5,101.5C 169.5,101.5 171.5,101.5 173.5,101.5C 173.5,105.5 173.5,109.5 173.5,113.5C 171.5,113.5 169.5,113.5 167.5,113.5C 167.5,115.5 167.5,117.5 167.5,119.5C 163.5,119.5 159.5,119.5 155.5,119.5C 155.5,117.5 155.5,115.5 155.5,113.5C 153.5,113.5 151.5,113.5 149.5,113.5C 149.5,109.5 149.5,105.5 149.5,101.5C 151.5,101.5 153.5,101.5 155.5,101.5C 155.5,99.5 155.5,97.5 155.5,95.5 Z"/></g>
<g><path style="opacity:1" fill="#000000" d="M 47.5,155.5 C 63.5,155.5 79.5,155.5 95.5,155.5C 95.5,157.5 95.5,159.5 95.5,161.5C 101.5,161.5 107.5,161.5 113.5,161.5C 113.5,163.5 113.5,165.5 113.5,167.5C 115.5,167.5 117.5,167.5 119.5,167.5C 119.5,169.5 119.5,171.5 119.5,173.5C 121.5,173.5 123.5,173.5 125.5,173.5C 125.5,175.5 125.5,177.5 125.5,179.5C 119.5,179.5 113.5,179.5 107.5,179.5C 107.5,177.5 107.5,175.5 107.5,173.5C 101.5,173.5 95.5,173.5 89.5,173.5C 89.5,171.5 89.5,169.5 89.5,167.5C 79.5,167.5 69.5,167.5 59.5,167.5C 59.5,165.5 59.5,163.5 59.5,161.5C 55.5,161.5 51.5,161.5 47.5,161.5C 47.5,159.5 47.5,157.5 47.5,155.5 Z"/></g>
<g><path style="opacity:1" fill="#000000" d="M 191.5,155.5 C 207.5,155.5 223.5,155.5 239.5,155.5C 239.5,157.5 239.5,159.5 239.5,161.5C 235.5,161.5 231.5,161.5 227.5,161.5C 227.5,163.5 227.5,165.5 227.5,167.5C 217.5,167.5 207.5,167.5 197.5,167.5C 197.5,169.5 197.5,171.5 197.5,173.5C 191.5,173.5 185.5,173.5 179.5,173.5C 179.5,175.5 179.5,177.5 179.5,179.5C 173.5,179.5 167.5,179.5 161.5,179.5C 161.5,177.5 161.5,175.5 161.5,173.5C 163.5,173.5 165.5,173.5 167.5,173.5C 167.5,171.5 167.5,169.5 167.5,167.5C 169.5,167.5 171.5,167.5 173.5,167.5C 173.5,165.5 173.5,163.5 173.5,161.5C 179.5,161.5 185.5,161.5 191.5,161.5C 191.5,159.5 191.5,157.5 191.5,155.5 Z"/></g>
<g><path style="opacity:1" fill="#000000" d="M 137.5,185.5 C 141.5,185.5 145.5,185.5 149.5,185.5C 149.5,187.5 149.5,189.5 149.5,191.5C 145.5,191.5 141.5,191.5 137.5,191.5C 137.5,189.5 137.5,187.5 137.5,185.5 Z"/></g>
</svg>
