<?xml version="1.0" encoding="UTF-8"?>
<svg version="1.1" xmlns="http://www.w3.org/2000/svg" viewBox="0 0 300 300">
<path d="M0,0 L30,0 L30,6 L36,6 L36,24 L42,24 L42,48 L48,48 L48,78 L54,78 L54,72 L60,72 L60,66 L126,66 L126,72 L138,72 L138,18 L144,18 L144,12 L150,12 L150,6 L180,6 L180,12 L186,12 L186,18 L192,18 L192,24 L198,24 L198,36 L204,36 L204,192 L198,192 L198,210 L192,210 L192,246 L186,246 L186,282 L180,282 L180,288 L18,288 L18,270 L12,270 L12,222 L6,222 L6,210 L0,210 L0,114 L-6,114 L-6,96 L-12,96 L-12,66 L-18,66 L-18,24 L-12,24 L-12,12 L-6,12 L-6,6 L0,6 Z " fill="#502C69" transform="translate(42,6)"/>
<path d="M0,0 L78,0 L78,12 L72,12 L72,18 L66,18 L66,24 L60,24 L60,30 L24,30 L24,24 L12,24 L12,18 L6,18 L6,12 L0,12 Z " fill="#FFFFFF" transform="translate(132,150)"/>
<path d="M0,0 L78,0 L78,12 L72,12 L72,18 L66,18 L66,24 L54,24 L54,30 L24,30 L24,24 L12,24 L12,18 L6,18 L6,12 L0,12 Z " fill="#FFFFFF" transform="translate(48,150)"/>
<path d="M0,0 L6,0 L6,24 L0,24 L0,66 L-6,66 L-6,96 L-12,96 L-12,120 L-18,120 L-18,90 L-12,90 L-12,60 L-6,60 L-6,18 L0,18 Z " fill="#FFFFFF" transform="translate(264,174)"/>
<path d="M0,0 L6,0 L6,12 L12,12 L12,54 L18,54 L18,78 L12,78 L12,60 L6,60 L6,18 L0,18 Z " fill="#FFFFFF" transform="translate(18,216)"/>
<path d="M0,0 L12,0 L12,6 L0,6 Z " fill="#FFFFFF" transform="translate(120,186)"/>
</svg>
