<?xml version="1.0" encoding="UTF-8"?>
<svg version="1.1" xmlns="http://www.w3.org/2000/svg" viewBox="0 0 300 300">
<path d="M0,0 L30,0 L30,6 L36,6 L36,24 L42,24 L42,48 L48,48 L48,78 L54,78 L54,72 L60,72 L60,66 L126,66 L126,72 L138,72 L138,18 L144,18 L144,12 L150,12 L150,6 L180,6 L180,12 L186,12 L186,18 L192,18 L192,24 L198,24 L198,36 L204,36 L204,192 L198,192 L198,210 L192,210 L192,246 L186,246 L186,282 L180,282 L180,288 L18,288 L18,270 L12,270 L12,222 L6,222 L6,210 L0,210 L0,114 L-6,114 L-6,96 L-12,96 L-12,66 L-18,66 L-18,24 L-12,24 L-12,12 L-6,12 L-6,6 L0,6 Z " fill="#FFFFFF" transform="translate(42,6)"/>
<path d="M0,0 L18,0 L18,6 L24,6 L24,12 L30,12 L30,72 L24,72 L24,78 L18,78 L18,84 L0,84 L0,78 L-6,78 L-6,72 L-12,72 L-12,12 L-6,12 L-6,6 L0,6 Z " fill="#000000" transform="translate(168,108)"/>
<path d="M0,0 L18,0 L18,6 L24,6 L24,12 L30,12 L30,72 L24,72 L24,78 L18,78 L18,84 L0,84 L0,78 L-6,78 L-6,72 L-12,72 L-12,12 L-6,12 L-6,6 L0,6 Z " fill="#000000" transform="translate(102,108)"/>
<path d="M0,0 L12,0 L12,6 L0,6 Z " fill="#000000" transform="translate(138,186)"/>
</svg>
